<svg xmlns="http://www.w3.org/2000/svg" width="140" height="130" viewBox="0 0 140 130"><path fill="#1D1D1B" d="M71.96 28.79c-14.224 0-25.795 11.57-25.795 25.793 0 14.223 11.57 25.793 25.795 25.793 14.222 0 25.792-11.57 25.792-25.793 0-14.222-11.57-25.793-25.792-25.793zm-.003 3.864c4.906 0 9.723 1.703 13.6 4.783-8.678-.274-18.313-.273-27.206.002 3.877-3.083 8.696-4.786 13.607-4.786zM50.03 54.582c0-3.72.964-7.405 2.782-10.66.125.02 15.604 2.72 15.744 2.742-.152.22-14.132 20.646-14.273 20.855C51.5 63.73 50.03 59.262 50.03 54.58zM71.958 76.51c-4.96 0-9.814-1.733-13.714-4.872 8.758.28 18.472.28 27.43-.004-3.9 3.138-8.755 4.875-13.716 4.875zm3.397-14.094c.152-.22 8.38-12.243 8.38-12.243s5.727-8.36 5.866-8.57c2.8 3.796 4.283 8.28 4.283 12.98 0 3.693-.95 7.35-2.744 10.588l-15.786-2.754z"/><linearGradient id="a" gradientUnits="userSpaceOnUse" x1="62.56" y1="82.128" x2="101.55" y2="120.216" gradientTransform="matrix(1 0 0 -1 -8.36 154.055)"><stop offset=".084" stop-color="#8A8F92"/><stop offset=".093" stop-color="#909598"/><stop offset=".148" stop-color="#B2B5B7"/><stop offset=".208" stop-color="#CED0D1"/><stop offset=".271" stop-color="#E4E5E6"/><stop offset=".341" stop-color="#F3F4F4"/><stop offset=".422" stop-color="#FCFCFC"/><stop offset=".539" stop-color="#FFF"/><stop offset=".604" stop-color="#FAFAFA"/><stop offset=".68" stop-color="#EBECED"/><stop offset=".763" stop-color="#D3D5D6"/><stop offset=".85" stop-color="#B2B4B6"/><stop offset=".939" stop-color="#878B8E"/><stop offset="1" stop-color="#666B6E"/></linearGradient><path fill="url(#a)" d="M71.958 29.178c-14.027 0-25.4 11.372-25.4 25.4 0 14.028 11.373 25.4 25.4 25.4 14.03 0 25.403-11.372 25.403-25.4 0-14.028-11.372-25.4-25.402-25.4zm0 48.376c-12.69 0-22.973-10.283-22.973-22.97 0-12.686 10.284-22.974 22.972-22.974 12.686 0 22.97 10.29 22.97 22.973 0 12.688-10.284 22.97-22.97 22.97z"/><linearGradient id="b" gradientUnits="userSpaceOnUse" x1="96.511" y1="83.278" x2="63.491" y2="116.298" gradientTransform="matrix(1 0 0 -1 -8.36 154.055)"><stop offset="0" stop-color="#191B1C"/><stop offset=".008" stop-color="#3C3E3F"/><stop offset=".021" stop-color="#6D6E6F"/><stop offset=".035" stop-color="#979798"/><stop offset=".049" stop-color="#B9B9BA"/><stop offset=".063" stop-color="#D3D4D4"/><stop offset=".077" stop-color="#E6E6E6"/><stop offset=".091" stop-color="#F1F1F1"/><stop offset=".107" stop-color="#F5F5F5"/><stop offset=".133" stop-color="#E0E1E1"/><stop offset=".204" stop-color="#ADAFB0"/><stop offset=".27" stop-color="#858789"/><stop offset=".331" stop-color="#686B6D"/><stop offset=".383" stop-color="#565A5C"/><stop offset=".421" stop-color="#505456"/><stop offset=".528" stop-color="#505456"/><stop offset=".683" stop-color="#4D5153"/><stop offset=".792" stop-color="#45484A"/><stop offset=".886" stop-color="#36393A"/><stop offset=".973" stop-color="#212325"/><stop offset="1" stop-color="#191B1C"/></linearGradient><path fill="url(#b)" d="M71.955 31.604c-12.686 0-22.974 10.288-22.974 22.975 0 12.686 10.29 22.97 22.975 22.97s22.97-10.283 22.97-22.97c0-12.69-10.284-22.976-22.97-22.976zm0 45.157c-12.234 0-22.187-9.95-22.187-22.18 0-12.235 9.952-22.188 22.187-22.188 12.232 0 22.186 9.952 22.186 22.187 0 12.23-9.952 22.18-22.185 22.18z"/><path fill="#FFF" d="M48.74 54.54c0 12.813 10.428 23.237 23.242 23.237s23.24-10.426 23.24-23.237c0-12.815-10.426-23.242-23.24-23.242-12.815 0-23.24 10.426-23.24 23.242zm.295 0c0-12.655 10.29-22.95 22.947-22.95 12.654 0 22.95 10.295 22.95 22.95 0 12.65-10.296 22.948-22.95 22.948-12.656 0-22.947-10.298-22.947-22.948z"/><radialGradient id="c" cx="856.451" cy="-609.137" r="51.818" gradientTransform="matrix(.878 0 0 -.878 -665.555 -495.554)" gradientUnits="userSpaceOnUse"><stop offset=".101" stop-color="#FFF"/><stop offset=".273" stop-color="#F6F7F7"/><stop offset=".553" stop-color="#DEE0E0"/><stop offset=".903" stop-color="#B7BBBC"/><stop offset="1" stop-color="#ABAFB1"/></radialGradient><path fill="url(#c)" d="M87.916 38.568c-10.063-.39-21.323-.373-31.292-.015-1.34 1.28-2.48 2.7-3.47 4.275 6.8 1.215 17.19 3.082 17.19 3.082L53.62 70.396c.808.06 1.436.102 2.444.12L87.916 38.57z"/><path fill="#FFF" d="M53.596 70.396c.178.006.363.025.544.03l16.7-24.4s-.166-.04-.5-.107L53.597 70.395z"/><path fill="#191B1C" d="M74.92 62.605L89.61 41.14l.282-.916 1.04-.845-.57-.693-.005.004-16.722 24.482h.004l1.286-.567h-.006z"/><path fill="#B6B9BB" d="M90.36 38.687l-.587-.654-1.92-.018-1.494-.29c-9.147-.312-19.43-.31-28.807.003l-.927.825c9.97-.356 21.23-.375 31.292.015.99.02 1.61.06 2.443.12z"/><path fill="#191B1C" d="M52.667 43.63l16.336 2.842 1.338-.563c-.166-.03-10.437-1.875-17.187-3.08l-.486.8z"/><linearGradient id="d" gradientUnits="userSpaceOnUse" x1="105.814" y1="105.453" x2="65.97" y2="81.384" gradientTransform="matrix(1 0 0 -1 -8.36 154.055)"><stop offset="0" stop-color="#ABAFB1"/><stop offset="1" stop-color="#505456"/></linearGradient><path fill="url(#d)" d="M56.038 70.513c10.063.39 21.34.363 31.31.004 1.34-1.28 2.475-2.693 3.46-4.27-6.8-1.216-17.196-3.08-17.196-3.08L90.34 38.686c-.81-.06-1.435-.1-2.442-.12l-31.86 31.948z"/><path fill="#B6B9BB" d="M69.037 46.476l-14.73 21.51-.31.917-.975.797.57.69h.004l16.726-24.487h-.006l-1.29.57.01.003z"/><path fill="#191B1C" d="M53.593 70.392l.59.654 1.817.047 1.48.25c9.147.31 19.604.314 28.982.002l.883-.828c-9.97.36-21.246.387-31.31-.004-.985-.022-1.61-.063-2.442-.12z"/><path fill="#B6B9BB" d="M91.287 65.45l-16.332-2.845-1.34.563c.166.03 10.445 1.872 17.193 3.078l.48-.796z"/><path fill="#FFF" d="M87.898 38.55c-10.13-.383-21.316-.354-31.274.003l-.56.563c9.935-.38 21.312-.627 31.522-.256l.312-.31zM73.615 63.167l17.2 3.07-.208.34-17.236-3.072"/><g><g fill="#E51937"><path d="M95.39 93.392c.458-2.172 2.51-2.814 4.5-2.814 3.706 0 4.505 1.365 4.505 2.963l.002 7.41h-3.27c-.118-.68-.044-.235-.15-.913-.818.74-1.955 1.176-3.074 1.176-.97 0-2.986-.51-2.986-2.98 0-2.77 3.117-3.59 6.043-3.605v-.838c0-.762-.55-1.004-1.197-1.004-.875 0-1.195.475-1.406 1.234l-2.966-.628zm5.546 2.94c-1.024.134-2.563.4-2.563 1.595 0 .744.726 1.086 1.104 1.086.53 0 .947-.215 1.46-.57V96.33zM52.028 93.392c.458-2.172 2.51-2.814 4.5-2.814 3.706 0 4.505 1.365 4.505 2.963v7.41h-3.268c-.12-.68-.044-.235-.153-.913-.816.74-1.956 1.176-3.074 1.176-.968 0-2.983-.51-2.983-2.98 0-2.77 3.114-3.59 6.04-3.605v-.838c0-.762-.55-1.004-1.195-1.004-.874 0-1.196.475-1.405 1.234l-2.967-.628zm5.545 2.94c-1.024.134-2.564.4-2.564 1.595 0 .744.725 1.086 1.103 1.086.53 0 .95-.215 1.46-.57V96.33zM68.407 94.728c0-.725-.1-1.463-.82-1.463-.665 0-1.06.37-1.542.91v6.775h-3.568V90.843h3.568v1.44c.874-.87 1.713-1.706 3.027-1.706.97 0 2.906.55 2.906 3.055v7.318h-3.57v-6.222zM85.166 87.31h3.568v13.64h-3.568V87.31zM90.21 87.31h3.57v13.64h-3.57V87.31zM84.205 97.397c-.797 2.36-2.94 3.814-5.7 3.814-3.17 0-5.394-1.948-5.394-5.315 0-3.09 2.09-5.313 5.394-5.313 2.594 0 4.69 1.305 5.21 4.207.05.255.093.452.132.704L76.9 96.958c.192 1.367 1.47 2.115 2.79 1.836.87-.182 1.76-.95 1.927-1.926l2.588.53zm-4.385-3.084c-.188-1.05-.836-1.676-1.846-1.566-1.207.135-1.45 1.143-1.242 2.227l3.088-.66zM50.97 87.298H39.952v2.965h5.624l-5.972 8.63v2.057h11.02v-3.076h-5.525l5.87-8.508"/></g></g></svg>