<svg xmlns="http://www.w3.org/2000/svg" width="140" height="130" viewBox="0 0 140 130"><g fill="#221F1F"><path d="M86.343 70.97c.753 0 1.827-.235 1.808-1.106-.054-2.452-7.626-.314-7.632-5.104-.004-2.904 3.014-3.823 5.575-3.823 2.68 0 5.83.357 6.112 3.634H87.89c-.047-.4-.212-.682-.47-.895-.26-.21-.74-.307-1.115-.307-.847 0-1.388.26-1.388.873 0 1.722 7.664-.12 7.655 5.147-.006 2.424-1.904 4.206-6.418 4.188-2.64-.013-5.64-.89-5.63-4.306h4.038c.126.703.508 1.6 1.78 1.7zM120.264 73.39V61.377h4.55V73.39h-4.55M120.264 56.49h4.55v3.105h-4.55V56.49M58.098 67.434l1.76 5.873h4.473l4.11-12.188H63.67l-1.88 6.275h.08l-1.904-6.276h-3.962l-1.904 6.275h-.047l-1.88-6.276h-4.774l4.11 12.187h4.773l1.76-5.873M19.187 56.487v16.788h4.856V68.32l1.618-1.75 4.43 6.705h5.964l-6.815-10.21 6.132-6.578h-6.39l-4.94 5.213v-5.213h-4.855M111.248 69.98v3.424h-4.678V56.426h4.678v8.352l2.914-3.388h4.988l-4.005 4.488 4.68 7.526h-5.154l-2.547-4.13-.875.706"/><path d="M47.905 71.574v-5.777c0-2.755-.97-4.8-5.844-4.774-4.367.023-5.964 1.54-6.254 4.106h4.19c.252-1.288 1.46-1.5 2.143-1.5.516 0 1.47.115 1.47 1.012 0 2.31-8.153.716-8.215 5.292 0 2.57 1.686 3.64 4.013 3.64 1.834 0 3.014-.246 4.27-1.097l.555.914h3.884v-.147c-.244-.43-.202-1.155-.212-1.67zm-6.458-.69c-.958.105-1.678-.245-1.678-.858v-.006c0-1.604 1.986-1.42 3.586-2.197.118 1.697-.252 2.885-1.91 3.062zM105.742 71.574v-5.777c0-2.755-.97-4.8-5.844-4.774-4.367.023-5.965 1.54-6.256 4.106h4.19c.252-1.288 1.462-1.5 2.144-1.5.518 0 1.47.115 1.47 1.012 0 2.31-8.15.716-8.214 5.292 0 2.57 1.685 3.64 4.014 3.64 1.834 0 3.012-.246 4.27-1.097l.555.914h3.885v-.147c-.245-.43-.202-1.155-.213-1.67zm-6.457-.69c-.958.105-1.68-.245-1.68-.858v-.006c0-1.604 1.987-1.42 3.588-2.197.118 1.697-.254 2.885-1.908 3.062zM79.923 71.574v-5.777c0-2.755-.97-4.8-5.843-4.774-4.367.023-5.965 1.54-6.256 4.106h4.19c.253-1.288 1.462-1.5 2.144-1.5.518 0 1.472.115 1.472 1.012 0 2.31-8.154.716-8.217 5.292 0 2.57 1.687 3.64 4.013 3.64 1.834 0 3.014-.246 4.27-1.097l.556.914h3.885v-.147c-.244-.43-.203-1.155-.214-1.67zm-6.456-.69c-.96.105-1.68-.245-1.68-.858v-.006c0-1.604 1.988-1.42 3.587-2.197.117 1.697-.252 2.885-1.907 3.062z"/></g></svg>