<svg xmlns="http://www.w3.org/2000/svg" width="140" height="130" viewBox="0 0 140 130"><g fill="#1C3F84"><path d="M72 28.788c-14.13 0-25.624 11.496-25.624 25.626S57.87 80.037 72 80.037s25.625-11.494 25.625-25.623c0-14.13-11.494-25.626-25.625-25.626zM72 77c-12.475 0-22.588-10.11-22.588-22.586 0-12.476 10.113-22.588 22.588-22.588s22.588 10.112 22.588 22.588C94.588 66.89 84.475 77 72 77z"/><path d="M74.604 66.54c-.305 0-.354-.325-.147-.985L79.15 50.63c.165-.546.19-.847.07-.904-.118-.053-.312.15-.583.618l-4.6 8.126c-.502.85-.988 1.272-1.46 1.272h-5.375c-.277 0-.435.06-.226-.6l2.25-8.513c.08-.272.133-.49.146-.637.02-.15-.005-.238-.056-.27-.05-.025-.135.007-.24.105-.105.093-.227.267-.36.512l-8.353 14.922c-.5.85-.985 1.273-1.455 1.273h-4.154c-.302 0-.338-.324-.104-.984l6.97-22.28c.177-.654.42-.985.722-.985h5.025c.583 0 .668.645.262 1.93L63.71 56.76l6.756-11.88c1.062-1.73 2.007-2.59 2.834-2.59h3.533c.885 0 1.02.972.412 2.92l-3.61 11.55 6.76-11.88c1.057-1.73 1.987-2.59 2.793-2.59h3.57c.885 0 1.02.972.41 2.92l-5.632 18.045c-.2.63-.15.944.15.944h7.725c.113 0 .12.167.033.494l-.47 1.355c-.09.33-.202.492-.34.492l-14.03.002z"/><g><path d="M31.488 101.02V87.332h5.125l2.83 8.585 2.83-8.585h5.123v13.688H43.98V92.7h-.07l-2.85 8.32h-3.236l-2.848-8.32h-.07v8.32h-3.418zM49.705 93.93c.25-.633.604-1.164 1.06-1.592.457-.428 1.01-.75 1.655-.97.646-.216 1.373-.324 2.18-.324.808 0 1.533.108 2.18.325.647.217 1.198.54 1.655.968.456.428.81.96 1.06 1.592.25.635.373 1.366.373 2.197 0 .834-.124 1.564-.374 2.2-.248.634-.603 1.164-1.06 1.59-.456.43-1.008.752-1.653.97-.645.22-1.372.325-2.18.325-.807 0-1.532-.106-2.18-.326-.646-.217-1.198-.538-1.654-.968-.457-.427-.812-.957-1.06-1.59-.25-.637-.374-1.367-.374-2.2 0-.832.124-1.565.373-2.198zm3.835-.362c-.277.123-.498.306-.658.543-.16.243-.27.534-.338.874-.064.34-.1.72-.1 1.143 0 .423.034.805.1 1.145s.18.63.338.87c.16.24.38.423.658.548.278.12.632.184 1.06.184.428 0 .78-.063 1.06-.184.278-.125.498-.308.658-.547.16-.24.272-.53.34-.87.063-.34.097-.723.097-1.146 0-.422-.032-.802-.098-1.143-.065-.34-.178-.63-.34-.873-.16-.236-.38-.42-.657-.542-.28-.12-.632-.185-1.06-.185-.43.002-.782.064-1.06.185zM65.904 101.02c-.38 0-.745-.026-1.096-.08-.35-.054-.664-.182-.94-.388-.28-.204-.502-.5-.67-.888s-.247-.915-.247-1.583v-4.538h-1.78v-2.306h1.78v-3.904h2.972v3.904h2.74v2.306h-2.74v3.8c0 .176.01.348.027.51.017.166.07.313.16.44.087.13.228.23.415.308.19.075.453.114.783.114h1.354v2.306h-2.758zM70.416 93.93c.248-.633.602-1.164 1.06-1.592s1.007-.75 1.654-.97c.646-.216 1.373-.324 2.18-.324.808 0 1.533.108 2.18.325.647.217 1.2.54 1.655.968.457.428.81.96 1.06 1.592.25.635.374 1.366.374 2.197 0 .834-.126 1.564-.374 2.2-.25.634-.604 1.164-1.06 1.59-.456.43-1.01.752-1.655.97-.645.22-1.372.325-2.18.325-.807 0-1.532-.106-2.18-.326-.647-.217-1.198-.538-1.655-.968-.457-.427-.81-.957-1.06-1.59-.25-.637-.373-1.367-.373-2.2 0-.832.124-1.565.374-2.198zm3.834-.362c-.28.123-.498.306-.66.543-.158.243-.27.534-.338.874-.064.34-.098.72-.098 1.143 0 .423.033.805.098 1.145.066.34.18.63.338.87.162.24.38.423.66.548.277.12.63.184 1.06.184.425 0 .78-.063 1.06-.184.275-.125.497-.308.656-.547.16-.24.273-.53.338-.87s.1-.723.1-1.146c0-.422-.033-.802-.1-1.143-.063-.34-.178-.63-.338-.873-.16-.236-.38-.42-.657-.542-.278-.12-.635-.185-1.06-.185-.43.002-.783.064-1.06.185zM93.664 94.36c-.03-.124-.086-.234-.168-.335-.084-.1-.19-.182-.32-.246-.133-.065-.297-.1-.5-.1h-1.584v7.337h-2.97V93.68h-2.618v7.337h-2.97v-9.78H93.53c.356 0 .72.064 1.095.192.373.13.71.316 1.016.562.302.246.55.558.747.932.195.375.293.812.293 1.302v6.79h-2.97v-6.313c0-.105-.017-.22-.046-.344zM107.352 98.714v2.306h-4.06c-1.495 0-2.66-.412-3.495-1.24-.836-.827-1.256-2.045-1.256-3.65s.42-2.824 1.257-3.648c.836-.826 2-1.24 3.496-1.24h4.06v2.304h-3.67c-.544 0-.972.13-1.28.396-.31.264-.55.625-.73 1.082h5.464v2.198h-5.463c.178.457.42.82.73 1.09.31.272.735.405 1.28.405l3.668-.003zM109.54 101.02V87.332h2.972v13.688h-2.97z"/></g></g></svg>