<svg xmlns="http://www.w3.org/2000/svg" width="140" height="130" viewBox="0 0 140 130"><g fill="#EC1C24"><path d="M48.382 84.9l4.463 4.224h30.333L71.995 81.83M47.133 83.796l23.182-2.88s-.336-1.198 1.344-1.44c1.68-.24 11.326-1.536 11.326-1.536s3.937-.145 7.056-3.02c0 0 2.255-2.11 3.6-4.562l-50.586 9.695 4.077 3.743zM41.95 78.95l-3.648-3.17 64.027-16.726-2.018 3.19s-2.16 4.656-9.84 6.24c-7.68 1.587-27.263 5.185-27.263 5.185s-2.064 0-2.208 1.68l-19.052 3.6zM53.613 70.597l-16.318 4.418-1.68-1.438s-2.064-2.064 2.015-3.41l70.746-22.844s-.575 1.942-1.728 3.886c-1.152 1.943-2.735 5.04-9.863 6.91L55.533 68.917s-2.112.145-1.92 1.68z"/><path d="M114.02 32.614L34.56 65.01s-10.92 4.197-2.64 12.26L44.734 89.15l6.552.068L34.08 74.245s-3.745-2.664 2.303-5.328l67.89-24.333c-.002 0 7.684-1.842 9.747-11.97zM61.65 92.317c-1.463-.963-3.374-1.447-5.735-1.447-2.396 0-4.337.484-5.82 1.455-1.48.97-2.223 2.217-2.223 3.74 0 1.64.847 2.95 2.54 3.93 1.4.813 3.2 1.217 5.397 1.217 1.663 0 3.083-.215 4.26-.64 1.178-.43 2.1-1.038 2.77-1.825s1.002-1.69 1.002-2.71c0-1.515-.732-2.753-2.193-3.72zm-3.12 6.452c-.668.562-1.562.843-2.68.843-1.11 0-2.004-.28-2.68-.844-.783-.66-1.173-1.552-1.173-2.685 0-1.13.42-2.05 1.26-2.766.668-.57 1.57-.85 2.7-.85.676 0 1.303.132 1.88.395.576.268 1.033.67 1.37 1.21s.508 1.202.508 1.993c0 1.13-.394 2.03-1.184 2.7zM39.66 92.553h.606c.495 0 .814.02.96.064.145.043.248.12.31.236.045.08.068.232.068.465v1.862h-5.87v-1.736c0-.31.032-.51.093-.604.062-.094.165-.164.31-.215s.42-.074.818-.074h.724v-1.37H29.81v1.37h.72c.404 0 .676.02.815.068.14.05.243.126.31.23.065.104.098.32.098.662v5.426c0 .29-.032.477-.1.563-.064.087-.187.153-.365.2-.18.047-.493.068-.943.068h-.536v1.37h7.867v-1.37h-.54c-.49 0-.817-.018-.978-.057-.162-.034-.28-.114-.357-.235-.046-.08-.07-.29-.07-.623v-1.82h5.87v1.822c0 .334-.034.55-.1.637-.063.093-.182.163-.353.21-.172.05-.498.07-.978.07h-.514v1.37h7.868v-1.37h-.463c-.54 0-.885-.02-1.036-.063-.15-.04-.262-.105-.335-.207-.074-.098-.11-.313-.11-.645v-5.408c0-.33.028-.54.086-.627s.16-.154.306-.2c.147-.046.443-.067.89-.067h.66v-1.37H39.66v1.37zm74.386 7.078c-.204-.094-.437-.344-.698-.75l-4.828-7.697h-7.942v1.19l1.457.097c.604-.01.807.367.634.826l-3.632 5.738c-.146.234-.28.395-.397.48-.12.086-.273.148-.457.19-.187.042-.478.063-.88.063v1.37h6.238v-1.37c-.596 0-.955-.01-1.087-.028-.198-.027-.344-.074-.432-.133-.09-.067-.133-.134-.133-.208 0-.068.06-.21.184-.422l.603-1.004h5.794l.477.902c.146.27.22.443.22.53 0 .1-.084.183-.254.25-.17.067-.468.105-.892.105l-.463.006v1.37h7.627v-1.37c-.556.002-.935-.042-1.138-.138zm-10.52-3.078l2.073-3.145 2.01 3.144h-4.082zm-28.422-4h.787c.378 0 .632.02.763.068.133.045.236.125.313.24.056.078.082.266.082.572v4.748l-5.612-6.998h-7.104v1.37h.862c.307 0 .525.02.655.065.13.044.233.118.31.224.077.102.115.262.115.48v5.723c0 .2-.042.354-.127.453-.084.102-.197.168-.34.21s-.403.062-.786.062h-.69v1.37h6.054v-1.37h-.77c-.37 0-.63-.023-.778-.07s-.253-.113-.31-.193c-.057-.08-.086-.27-.086-.565V93.8l5.97 7.345h4.804v-7.71c0-.302.03-.495.092-.587.063-.09.172-.162.328-.213.157-.053.42-.08.788-.08h.736v-1.37h-6.054v1.37h-.004zm22.86 3.52c0-1.032-.042-1.917-.717-2.655-.675-.737-1.58-1.296-2.714-1.673-1.134-.373-2.365-.563-4.286-.563H82.08v1.37h.56c.488 0 .81.02.96.067.15.046.26.112.324.202.066.088.1.283.1.588v5.455c0 .305-.03.502-.094.594-.093.114-.214.194-.36.24-.147.048-.458.07-.93.07h-.56v1.37h7.156c.648 0 1.51-.055 2.588-.162 1.076-.11 1.61-.25 2.197-.422.78-.23 1.51-.57 2.19-1.025.68-.452 1.187-.964 1.532-1.528.345-.565.22-1.208.22-1.927zm-4.675 1.958c-.438.53-1.014.918-1.727 1.158s-1.402.36-2.664.36c-.455 0-.74-.013-.86-.038s-.21-.074-.272-.148c-.04-.045-.06-.174-.06-.385v-6.202h1.78c1.13 0 1.703.107 2.313.328.608.22 1.117.598 1.53 1.135.41.536.32 1.167.32 1.892 0 .736.08 1.365-.36 1.9z"/></g></svg>