<svg xmlns="http://www.w3.org/2000/svg" width="140" height="130" viewBox="0 0 140 130"><path fill="#EC1C24" d="M89.432 62.81s-3.45 1-10.14 5.11c-6.005 3.69-8.358 6.173-8.358 6.173l-18.5-12.787s7.783-5.726 14.29-1.34l8.724 5.985 1.064-.7-24.08-16.866s3.464-1 10.15-5.11c6.007-3.69 8.35-6.173 8.35-6.173l18.51 12.788s-7.784 5.725-14.29 1.34l-8.723-5.984-1.064.696 24.066 16.87"/><path fill="#005597" d="M75.107 80.254H61.02v3.133h6.8l-7.037 6.574v2.626h14.3V89.44h-7.116l7.14-6.556v-2.63M52.728 92.898c5.634 0 7.082-1.437 7.082-4.607v-8.036h-4.47v7.557c0 1.27-1.087 2.025-2.612 2.025-1.585 0-2.604-.76-2.604-2.044v-7.536h-4.47v8.037c0 3.173 1.45 4.608 7.074 4.608M83.277 92.898c5.635 0 7.082-1.437 7.082-4.607v-8.036h-4.47v7.557c0 1.27-1.088 2.025-2.613 2.025-1.586 0-2.605-.76-2.605-2.044v-7.536h-4.467v8.037c0 3.173 1.447 4.608 7.072 4.608M112.627 80.254h-4.648v12.332h4.647V80.254M107.275 80.254h-6.132l-4.946 4.254v-4.254h-4.66v12.332h4.66v-4.374l4.594 4.374h6.26l-6.814-6.326 7.04-6.006M34.657 83.664c0-.955 1.413-.986 1.89-.986.486 0 1.563.192 2.285 1.39h5.263c0-2.32-2.195-4.167-7.525-4.167-5.93 0-6.937 2.6-6.937 4.09 0 2.752 2.14 3.558 6.768 4.05.397.043 2.808-.07 2.808 1.087 0 .863-1.357.918-1.844.918-.5 0-1.426-.082-2.196-1.442h-5.793c0 2.705 1.82 4.27 7.98 4.27 5.655 0 7.16-2.31 7.16-4.07 0-1.703-1.165-3.44-5.996-4.06-2.02-.264-3.863-.376-3.863-1.08"/></svg>